<?xml version="1.0" encoding="utf-8"?>
<!-- Generator: Adobe Illustrator 25.3.1, SVG Export Plug-In . SVG Version: 6.00 Build 0)  -->
<svg version="1.1" id="Layer_1" xmlns="http://www.w3.org/2000/svg" xmlns:xlink="http://www.w3.org/1999/xlink" x="0px" y="0px"
	 viewBox="0 0 64 64" style="enable-background:new 0 0 64 64;" xml:space="preserve">
<style type="text/css">
	.st0{fill:#F87060;}
</style>
<path class="st0" d="M18.85,50.4h26.29c3.63,0,6.57-2.94,6.57-6.57V22.8c0-5.08-4.12-9.2-9.2-9.2H21.48c-5.08,0-9.2,4.12-9.2,9.2
	v21.03C12.28,47.46,15.22,50.4,18.85,50.4z M17.54,22.8c0-2.18,1.77-3.94,3.94-3.94h21.03c2.18,0,3.94,1.77,3.94,3.94v2.63H17.54
	V22.8z M17.54,30.69h11.83v3.83c-0.03,1.39,1,2.57,2.37,2.74c1.45,0.14,2.73-0.92,2.87-2.36c0.01-0.09,0.01-0.18,0.01-0.27v-3.94
	h11.83v13.15c0,0.73-0.59,1.31-1.31,1.31H18.85c-0.73,0-1.31-0.59-1.31-1.31V30.69z"/>
</svg>
