<?xml version="1.0" encoding="utf-8"?>
<!-- Generator: Adobe Illustrator 25.3.1, SVG Export Plug-In . SVG Version: 6.00 Build 0)  -->
<svg version="1.1" id="Layer_1" xmlns="http://www.w3.org/2000/svg" xmlns:xlink="http://www.w3.org/1999/xlink" x="0px" y="0px"
	 viewBox="0 0 64 64" style="enable-background:new 0 0 64 64;" xml:space="preserve">
<style type="text/css">
	.st0{fill:#FFFDFD;}
	.st1{fill:#055596;}
	.st2{clip-path:url(#SVGID_2_);}
	.st3{fill:#FFFFFF;}
</style>
<g>
	<circle class="st0" cx="32" cy="32" r="22.96"/>
	<g>
		<circle class="st1" cx="32" cy="32" r="24.62"/>
		<g>
			<defs>
				<ellipse id="SVGID_1_" cx="31.96" cy="32" rx="22.92" ry="22.96"/>
			</defs>
			<use xlink:href="#SVGID_1_"  style="overflow:visible;fill:#1C1D1E;"/>
			<clipPath id="SVGID_2_">
				<use xlink:href="#SVGID_1_"  style="overflow:visible;"/>
			</clipPath>
			<g class="st2">
				<path class="st3" d="M14.76,55.47c0.09-0.65,0.15-1.31,0.27-1.96c0.88-4.75,3.35-8.46,7.28-11.25c2.72,2.58,5.91,3.94,9.65,3.93
					c3.72,0,6.92-1.35,9.66-3.95c0.54,0.43,1.12,0.84,1.64,1.31c3.31,2.94,5.26,6.61,5.79,11.02c0.03,0.3,0.08,0.6,0.12,0.9
					c0,0.36,0,0.72,0,1.08c-11.47,0-22.94,0-34.41,0C14.76,56.19,14.76,55.82,14.76,55.47z"/>
				<path class="st3" d="M32.77,22.07c0.68,0.13,1.37,0.22,2.03,0.41c4.03,1.12,7.02,4.7,7.43,8.88c0.58,5.8-3.67,10.89-9.48,11.37
					c-5.24,0.44-10.05-3.3-10.94-8.49c-0.95-5.55,2.51-10.72,8-11.94c0.44-0.1,0.9-0.15,1.35-0.23
					C31.69,22.07,32.23,22.07,32.77,22.07z"/>
			</g>
		</g>
	</g>
</g>
</svg>
