<?xml version="1.0" encoding="utf-8"?>
<!-- Generator: Adobe Illustrator 25.3.1, SVG Export Plug-In . SVG Version: 6.00 Build 0)  -->
<svg version="1.1" id="Layer_1" xmlns="http://www.w3.org/2000/svg" xmlns:xlink="http://www.w3.org/1999/xlink" x="0px" y="0px"
	 viewBox="0 0 64 64" style="enable-background:new 0 0 64 64;" xml:space="preserve">
<style type="text/css">
	.st0{fill:#1C1D1E;}
</style>
<g>
	<path class="st0" d="M24.17,30.01l-4.39,4.71l-3.81-2.49c-0.37-0.21-0.79-0.16-1.11,0.11l-2.01,2.01c-0.32,0.37-0.32,0.9,0,1.22
		l3.92,3.92l-5.56,5.66l-1.27-1.27c-0.32-0.32-0.9-0.32-1.22,0l-1.59,1.59c-0.26,0.26-0.37,0.69-0.16,1.01l0.9,1.8
		c0.37,0.74,0.85,1.38,1.43,1.96c0.58,0.58,1.22,1.06,1.96,1.43l1.85,0.95c0.32,0.16,0.74,0.11,1.01-0.16l1.59-1.59
		c0.37-0.37,0.37-0.9,0-1.22l-1.27-1.22l5.61-5.61l3.92,3.92c0.37,0.37,0.9,0.37,1.22,0l2.01-2.01c0.32-0.32,0.37-0.74,0.11-1.11
		l-2.49-3.81l4.92-4.61L24.17,30.01z"/>
	<path class="st0" d="M45.98,20.17c0.16-0.16,0.26-0.37,0.32-0.53l1.96-6.88c0.21-0.79-0.64-1.64-1.43-1.43l-6.88,1.96
		c-0.21,0.05-0.37,0.16-0.53,0.32l-5.35,5.77L40,25.73L45.98,20.17z"/>
	<path class="st0" d="M56.88,45.47l-1.59-1.59c-0.32-0.32-0.9-0.32-1.22,0l-1.22,1.22l-5.66-5.61l3.92-3.92
		c0.32-0.32,0.32-0.9,0-1.22l-2.01-2.01c-0.26-0.26-0.74-0.32-1.11-0.11l-3.81,2.49L24.59,13.66c-0.16-0.16-0.32-0.26-0.53-0.32
		l-6.83-1.96c-0.79-0.21-1.64,0.64-1.43,1.43l1.91,6.83c0.05,0.21,0.16,0.37,0.32,0.53L39.1,39.81l-2.49,3.81
		c-0.21,0.32-0.16,0.79,0.11,1.11l2.01,2.01c0.32,0.32,0.9,0.32,1.22,0l3.92-3.92l5.72,5.61l-1.22,1.22c-0.32,0.32-0.32,0.9,0,1.22
		l1.59,1.59c0.26,0.26,0.69,0.32,1.01,0.16l1.8-0.95c0.74-0.37,1.38-0.85,1.96-1.43s1.06-1.22,1.43-1.96l0.95-1.8
		C57.2,46.16,57.15,45.74,56.88,45.47z"/>
</g>
</svg>
