<?xml version="1.0" encoding="utf-8"?>
<!-- Generator: Adobe Illustrator 25.3.1, SVG Export Plug-In . SVG Version: 6.00 Build 0)  -->
<svg version="1.1" id="Layer_1" xmlns="http://www.w3.org/2000/svg" xmlns:xlink="http://www.w3.org/1999/xlink" x="0px" y="0px"
	 viewBox="0 0 64 64" style="enable-background:new 0 0 64 64;" xml:space="preserve">
<style type="text/css">
	.st0{fill:#F87060;}
</style>
<path class="st0" d="M40.87,16.83c-0.32-0.02-0.65-0.04-0.97-0.04c-3.04-0.01-5.93,1.31-7.91,3.61c-1.98-2.3-4.87-3.62-7.91-3.61
	c-0.32,0-0.64,0.01-0.97,0.04c-5.45,0.49-9.56,5.15-9.37,10.61c0.36,7.6,8.52,13.99,15.27,18.81c1.77,1.27,4.15,1.27,5.92,0
	c6.75-4.84,14.93-11.22,15.3-18.81C50.44,21.98,46.32,17.32,40.87,16.83z M32.12,42.3c-0.07,0.06-0.18,0.06-0.25,0
	c-4.21-3-12.97-9.33-13.25-15.08c-0.09-2.87,2.08-5.31,4.94-5.56c0.18,0,0.36,0,0.54,0c1.62,0,3.16,0.7,4.22,1.92
	c1.75,2.04,4.82,2.27,6.86,0.52c0.18-0.16,0.36-0.33,0.52-0.52c1.06-1.23,2.6-1.93,4.22-1.92c0.18,0,0.35,0,0.54,0
	c2.86,0.25,5.03,2.69,4.94,5.56C45.1,32.97,36.34,39.3,32.12,42.3z"/>
</svg>
