<?xml version="1.0" encoding="utf-8"?>
<!-- Generator: Adobe Illustrator 25.3.1, SVG Export Plug-In . SVG Version: 6.00 Build 0)  -->
<svg version="1.1" id="Layer_1" xmlns="http://www.w3.org/2000/svg" xmlns:xlink="http://www.w3.org/1999/xlink" x="0px" y="0px"
	 viewBox="0 0 64 64" style="enable-background:new 0 0 64 64;" xml:space="preserve">
<style type="text/css">
	.st0{fill:#F87060;}
	.st1{fill:#FFFFFF;}
</style>
<g>
	<path class="st0" d="M44.6,7H19.4C12.6,7,7,12.6,7,19.4v25.2C7,51.5,12.6,57,19.4,57h25.2C51.5,57,57,51.5,57,44.6V19.4
		C57,12.6,51.5,7,44.6,7z"/>
	<path class="st1" d="M32,22.5c-5.5,0-9.9,3.7-9.9,8.3c0,2.4,1.2,4.5,3,6c-0.4,1.1-1.1,2.7-2.1,3.7c-0.4,0.4,0,1,0.5,1
		c3-0.2,5.1-1.6,6.1-2.6c0.8,0.2,1.5,0.2,2.4,0.2c5.5,0,9.9-3.7,9.9-8.3S37.5,22.5,32,22.5z M27.3,32.3c-0.8,0-1.5-0.7-1.5-1.5
		c0-0.8,0.7-1.5,1.5-1.5c0.8,0,1.5,0.7,1.5,1.5C28.8,31.7,28.1,32.3,27.3,32.3z M32,32.3c-0.8,0-1.5-0.7-1.5-1.5
		c0-0.8,0.7-1.5,1.5-1.5c0.8,0,1.5,0.7,1.5,1.5S32.8,32.3,32,32.3z M36.7,32.3c-0.8,0-1.5-0.7-1.5-1.5c0-0.8,0.7-1.5,1.5-1.5
		c0.8,0,1.5,0.7,1.5,1.5C38.2,31.7,37.6,32.3,36.7,32.3z"/>
</g>
</svg>
