<?xml version="1.0" encoding="utf-8"?>
<!-- Generator: Adobe Illustrator 25.3.1, SVG Export Plug-In . SVG Version: 6.00 Build 0)  -->
<svg version="1.1" id="Layer_1" xmlns="http://www.w3.org/2000/svg" xmlns:xlink="http://www.w3.org/1999/xlink" x="0px" y="0px"
	 viewBox="0 0 64 64" style="enable-background:new 0 0 64 64;" xml:space="preserve">
<style type="text/css">
	.st0{fill:#053E77;}
	.st1{fill:#29A7ED;}
</style>
<g>
	<path class="st0" d="M44.6,7H19.4C12.55,7,7,12.55,7,19.4V44.6C7,51.45,12.55,57,19.4,57H44.6C51.45,57,57,51.45,57,44.6V19.4
		C57,12.55,51.45,7,44.6,7z"/>
	<path class="st1" d="M32,22.49c-5.47,0-9.92,3.74-9.92,8.33c0,2.36,1.17,4.49,3.05,5.99c-0.42,1.09-1.13,2.67-2.09,3.72
		c-0.36,0.4-0.04,1,0.48,0.98c3.05-0.17,5.08-1.61,6.12-2.61c0.75,0.15,1.55,0.25,2.36,0.25c5.47,0,9.92-3.74,9.92-8.33
		S37.47,22.49,32,22.49z M27.26,32.32c-0.84,0-1.5-0.67-1.5-1.5c0-0.84,0.67-1.5,1.5-1.5c0.84,0,1.5,0.67,1.5,1.5
		C28.76,31.66,28.09,32.32,27.26,32.32z M32,32.32c-0.84,0-1.5-0.67-1.5-1.5c0-0.84,0.67-1.52,1.5-1.52s1.5,0.67,1.5,1.5
		C33.5,31.63,32.84,32.32,32,32.32z M36.74,32.32c-0.84,0-1.5-0.67-1.5-1.5c0-0.84,0.67-1.5,1.5-1.5c0.84,0,1.5,0.67,1.5,1.5
		C38.24,31.66,37.58,32.32,36.74,32.32z"/>
</g>
</svg>
