<?xml version="1.0" encoding="utf-8"?>
<!-- Generator: Adobe Illustrator 25.3.1, SVG Export Plug-In . SVG Version: 6.00 Build 0)  -->
<svg version="1.1" id="Layer_1" xmlns="http://www.w3.org/2000/svg" xmlns:xlink="http://www.w3.org/1999/xlink" x="0px" y="0px"
	 viewBox="0 0 64 64" style="enable-background:new 0 0 64 64;" xml:space="preserve">
<style type="text/css">
	.st0{fill:#053E77;}
	.st1{fill-rule:evenodd;clip-rule:evenodd;fill:#29A7ED;}
</style>
<g>
	<path class="st0" d="M44.6,7H19.4C12.55,7,7,12.55,7,19.4V44.6C7,51.45,12.55,57,19.4,57H44.6C51.45,57,57,51.45,57,44.6V19.4
		C57,12.55,51.45,7,44.6,7z"/>
	<g>
		<path class="st1" d="M23.27,21.65h12.75l4.71,4.71v16H23.27L23.27,21.65L23.27,21.65z M35.03,22.69l4.66,4.66h-2.33
			c-1.28,0-2.33-1.05-2.33-2.33V22.69L35.03,22.69z M26.83,39.54c-0.28,0-0.51-0.23-0.51-0.51c0-0.28,0.23-0.51,0.51-0.51h10.34
			c0.28,0,0.51,0.23,0.51,0.51c0,0.28-0.23,0.51-0.51,0.51H26.83z M26.83,28.82c-0.28,0-0.51-0.23-0.51-0.51s0.23-0.51,0.51-0.51
			h4.55c0.28,0,0.51,0.23,0.51,0.51c0,0.28-0.23,0.51-0.51,0.51H26.83z M26.83,32.39c-0.28,0-0.51-0.23-0.51-0.51
			c0-0.28,0.23-0.51,0.51-0.51h10.34c0.28,0,0.51,0.23,0.51,0.51c0,0.28-0.23,0.51-0.51,0.51H26.83z M26.83,35.97
			c-0.28,0-0.51-0.23-0.51-0.51s0.23-0.51,0.51-0.51h10.34c0.28,0,0.51,0.23,0.51,0.51c0,0.28-0.23,0.51-0.51,0.51H26.83z"/>
	</g>
</g>
</svg>
