<?xml version="1.0" encoding="utf-8"?>
<!-- Generator: Adobe Illustrator 25.3.1, SVG Export Plug-In . SVG Version: 6.00 Build 0)  -->
<svg version="1.1" id="Layer_1" xmlns="http://www.w3.org/2000/svg" xmlns:xlink="http://www.w3.org/1999/xlink" x="0px" y="0px"
	 viewBox="0 0 64 64" style="enable-background:new 0 0 64 64;" xml:space="preserve">
<style type="text/css">
	.st0{fill:#F87060;}
</style>
<path class="st0" d="M34.74,10.75c-1.78-0.57-3.72,0.08-4.8,1.6L15.63,32.37c-1.37,1.93-0.92,4.61,1.01,5.99
	c0.73,0.52,1.59,0.79,2.48,0.8h7.15v10.01c0,2.37,1.92,4.29,4.29,4.29c1.38,0,2.68-0.67,3.49-1.79l14.31-20.03
	c1.38-1.93,0.93-4.61-0.99-5.99c-0.73-0.52-1.6-0.8-2.5-0.8h-7.15V14.83C37.72,12.97,36.51,11.32,34.74,10.75z M44.87,29.14
	L30.57,49.16V34.86H19.12l14.31-20.03v14.31H44.87z"/>
</svg>
