<?xml version="1.0" encoding="utf-8"?>
<!-- Generator: Adobe Illustrator 25.3.1, SVG Export Plug-In . SVG Version: 6.00 Build 0)  -->
<svg version="1.1" id="Layer_1" xmlns="http://www.w3.org/2000/svg" xmlns:xlink="http://www.w3.org/1999/xlink" x="0px" y="0px"
	 viewBox="0 0 64 64" style="enable-background:new 0 0 64 64;" xml:space="preserve">
<style type="text/css">
	.st0{fill:#FFFFFF;}
</style>
<path class="st0" d="M49.8,43.8L38,32l11.8-11.8c1.4-1.4,1.4-3.5,0-4.9l-1.1-1.1c-0.7-0.7-1.5-1-2.5-1l0,0c-0.9,0-1.8,0.4-2.5,1
	L32,26L20.2,14.2c-1.4-1.4-3.5-1.4-4.9,0l-1.1,1.1c-0.7,0.6-1,1.5-1,2.5s0.4,1.8,1,2.5L26,32L14.2,43.8c-1.4,1.4-1.4,3.5,0,4.9
	l1.1,1.1c0.6,0.7,1.5,1,2.5,1c0.9,0,1.8-0.4,2.5-1L32,38l11.8,11.8c0.7,0.7,1.6,1,2.5,1c0.9,0,1.8-0.3,2.5-1l1.1-1.1
	c0.7-0.7,1-1.5,1-2.5C50.9,45.4,50.5,44.5,49.8,43.8L49.8,43.8z"/>
</svg>
