<?xml version="1.0" encoding="utf-8"?>
<!-- Generator: Adobe Illustrator 25.3.1, SVG Export Plug-In . SVG Version: 6.00 Build 0)  -->
<svg version="1.1" id="Layer_1" xmlns="http://www.w3.org/2000/svg" xmlns:xlink="http://www.w3.org/1999/xlink" x="0px" y="0px"
	 viewBox="0 0 64 64" style="enable-background:new 0 0 64 64;" xml:space="preserve">
<style type="text/css">
	.st0{fill-rule:evenodd;clip-rule:evenodd;fill:#F87060;}
	.st1{fill:#F87060;}
</style>
<g>
	<path class="st0" d="M19.1,21.7c-1.6,0-2.8,1.3-2.8,2.8V45c0,1.6,1.3,2.8,2.8,2.8h20.5c1.6,0,2.8-1.3,2.8-2.8v-5.9
		c0-1.3,1.1-2.4,2.4-2.4c1.3,0,2.4,1.1,2.4,2.4V45c0,4.2-3.4,7.7-7.7,7.7H19.1c-4.2,0-7.7-3.4-7.7-7.7V24.7c0-4.2,3.4-7.7,7.7-7.7
		H25c1.3,0,2.4,1.1,2.4,2.4s-1.1,2.4-2.4,2.4h-5.9V21.7z"/>
	<path class="st1" d="M48.3,13.3l2.3,2.3c2.5,2.5,2.5,6.7,0,9.3l-0.5,0.5L38.5,14l0.7-0.7C41.6,10.7,45.8,10.7,48.3,13.3z"/>
	<path class="st1" d="M46.7,28.8L35.1,17.2L24.6,27.7c-1.1,1.1-1.8,2.5-1.9,4l-0.5,6.5c-0.2,2.1,1.5,3.7,3.5,3.5l6.5-0.5
		c1.5-0.1,3-0.8,4-1.9L46.7,28.8z"/>
</g>
</svg>
