<?xml version="1.0" encoding="utf-8"?>
<!-- Generator: Adobe Illustrator 25.3.1, SVG Export Plug-In . SVG Version: 6.00 Build 0)  -->
<svg version="1.1" id="Layer_1" xmlns="http://www.w3.org/2000/svg" xmlns:xlink="http://www.w3.org/1999/xlink" x="0px" y="0px"
	 viewBox="0 0 64 64" style="enable-background:new 0 0 64 64;" xml:space="preserve">
<style type="text/css">
	.st0{fill:#053E77;}
	.st1{fill:#29A7ED;}
</style>
<g>
	<path class="st0" d="M44.6,7H19.4C12.55,7,7,12.55,7,19.4V44.6C7,51.45,12.55,57,19.4,57H44.6C51.45,57,57,51.45,57,44.6V19.4
		C57,12.55,51.45,7,44.6,7z"/>
	<path class="st1" d="M42.41,38.7l-8.84-15.32c-0.32-0.56-0.92-0.91-1.57-0.91s-1.24,0.35-1.57,0.91l-8.91,15.43
		c-0.32,0.56-0.32,1.25,0,1.81c0.32,0.56,0.92,0.91,1.57,0.91H40.9c0,0,0,0,0.01,0c1,0,1.81-0.81,1.81-1.81
		C42.72,39.34,42.6,38.99,42.41,38.7z M31.06,28.03h1.88c0.14,0,0.26,0.12,0.26,0.26l-0.52,7.11c0,0.14-0.12,0.26-0.26,0.26h-0.84
		c-0.14,0-0.26-0.12-0.26-0.26l-0.52-7.11C30.8,28.15,30.92,28.03,31.06,28.03z M32,39.07c-0.7,0-1.26-0.56-1.26-1.26
		s0.56-1.26,1.26-1.26s1.26,0.56,1.26,1.26S32.7,39.07,32,39.07z"/>
</g>
</svg>
