<?xml version="1.0" encoding="utf-8"?>
<!-- Generator: Adobe Illustrator 25.3.1, SVG Export Plug-In . SVG Version: 6.00 Build 0)  -->
<svg version="1.1" id="Layer_1" xmlns="http://www.w3.org/2000/svg" xmlns:xlink="http://www.w3.org/1999/xlink" x="0px" y="0px"
	 viewBox="0 0 64 64" style="enable-background:new 0 0 64 64;" xml:space="preserve">
<style type="text/css">
	.st0{fill:#F87060;}
	.st1{fill:#FFFFFF;}
</style>
<g>
	<path class="st0" d="M44.6,7H19.4C12.6,7,7,12.6,7,19.4v25.2C7,51.5,12.6,57,19.4,57h25.2C51.5,57,57,51.5,57,44.6V19.4
		C57,12.6,51.5,7,44.6,7z"/>
	<path class="st1" d="M42.4,38.7l-8.8-15.3c-0.3-0.6-0.9-0.9-1.6-0.9s-1.2,0.4-1.6,0.9l-8.9,15.4c-0.3,0.6-0.3,1.2,0,1.8
		s0.9,0.9,1.6,0.9h17.8c0,0,0,0,0,0c1,0,1.8-0.8,1.8-1.8C42.7,39.3,42.6,39,42.4,38.7z M31.1,28h1.9c0.1,0,0.3,0.1,0.3,0.3l-0.5,7.1
		c0,0.1-0.1,0.3-0.3,0.3h-0.8c-0.1,0-0.3-0.1-0.3-0.3l-0.5-7.1C30.8,28.1,30.9,28,31.1,28z M32,39.1c-0.7,0-1.3-0.6-1.3-1.3
		s0.6-1.3,1.3-1.3s1.3,0.6,1.3,1.3S32.7,39.1,32,39.1z"/>
</g>
</svg>
