<?xml version="1.0" encoding="utf-8"?>
<!-- Generator: Adobe Illustrator 25.3.1, SVG Export Plug-In . SVG Version: 6.00 Build 0)  -->
<svg version="1.1" id="Layer_1" xmlns="http://www.w3.org/2000/svg" xmlns:xlink="http://www.w3.org/1999/xlink" x="0px" y="0px"
	 viewBox="0 0 64 64" style="enable-background:new 0 0 64 64;" xml:space="preserve">
<style type="text/css">
	.st0{fill:#29A7ED;}
</style>
<g>
	<path class="st0" d="M13.62,23.19v27.18c0,1.44,1.17,2.62,2.62,2.62h31.5c1.44,0,2.62-1.18,2.62-2.62V13.62
		c0-1.44-1.19-2.62-2.62-2.62l-22.01,0.01c-0.18,0.01-0.33,0.16-0.33,0.33v8.9c0,1.44-1.17,2.62-2.62,2.62h-8.83
		C13.77,22.87,13.62,23.01,13.62,23.19z M18.86,36.16c0.24,0,0.47,0.03,0.7,0.09L22.81,33c-0.01-0.05-0.01-0.12-0.01-0.17
		c0-1.46,1.18-2.62,2.62-2.62c1.46,0,2.62,1.17,2.62,2.62c0,0.05,0,0.11-0.01,0.16l5.39,5.38c0.35-0.18,0.76-0.29,1.18-0.29
		s0.81,0.09,1.15,0.26l6.8-6.79c-0.05-0.21-0.08-0.42-0.08-0.64c0-1.44,1.18-2.62,2.62-2.62c1.46,0,2.62,1.18,2.62,2.62
		c0,1.46-1.17,2.63-2.62,2.63c-0.25,0-0.5-0.04-0.72-0.11l-7.15,7.15v0.12c0,1.44-1.17,2.62-2.62,2.62c-1.44,0-2.63-1.18-2.63-2.62
		v-0.05l-5.45-5.45c-0.33,0.16-0.71,0.25-1.12,0.25c-0.39,0-0.77-0.09-1.12-0.25l-2.91,2.91c0.07,0.21,0.09,0.43,0.09,0.67
		c0,1.46-1.17,2.62-2.62,2.62c-1.44,0-2.62-1.17-2.62-2.62C16.24,37.34,17.42,36.16,18.86,36.16z"/>
	<path class="st0" d="M22.46,20.23c0.18,0,0.33-0.15,0.33-0.33v-8.06c0-0.29-0.35-0.45-0.56-0.23c-1.64,1.69-6.42,6.44-8.07,8.07
		c-0.21,0.21-0.06,0.56,0.23,0.56H22.46z"/>
</g>
</svg>
