<?xml version="1.0" encoding="utf-8"?>
<!-- Generator: Adobe Illustrator 25.3.1, SVG Export Plug-In . SVG Version: 6.00 Build 0)  -->
<svg version="1.1" id="Layer_1" xmlns="http://www.w3.org/2000/svg" xmlns:xlink="http://www.w3.org/1999/xlink" x="0px" y="0px"
	 viewBox="0 0 64 64" style="enable-background:new 0 0 64 64;" xml:space="preserve">
<style type="text/css">
	.st0{fill:#F87060;}
	.st1{fill-rule:evenodd;clip-rule:evenodd;fill:#FFFFFF;}
</style>
<g>
	<path class="st0" d="M44.6,7H19.4C12.6,7,7,12.6,7,19.4v25.2C7,51.5,12.6,57,19.4,57h25.2C51.5,57,57,51.5,57,44.6V19.4
		C57,12.6,51.5,7,44.6,7z"/>
	<g>
		<path class="st1" d="M23.3,21.6H36l4.7,4.7v16H23.3V21.6L23.3,21.6z M35,22.7l4.7,4.7h-2.3c-1.3,0-2.3-1-2.3-2.3V22.7L35,22.7z
			 M26.8,39.5c-0.3,0-0.5-0.2-0.5-0.5s0.2-0.5,0.5-0.5h10.3c0.3,0,0.5,0.2,0.5,0.5s-0.2,0.5-0.5,0.5H26.8z M26.8,28.8
			c-0.3,0-0.5-0.2-0.5-0.5s0.2-0.5,0.5-0.5h4.6c0.3,0,0.5,0.2,0.5,0.5s-0.2,0.5-0.5,0.5H26.8z M26.8,32.4c-0.3,0-0.5-0.2-0.5-0.5
			s0.2-0.5,0.5-0.5h10.3c0.3,0,0.5,0.2,0.5,0.5s-0.2,0.5-0.5,0.5H26.8z M26.8,36c-0.3,0-0.5-0.2-0.5-0.5s0.2-0.5,0.5-0.5h10.3
			c0.3,0,0.5,0.2,0.5,0.5S37.4,36,37.2,36H26.8z"/>
	</g>
</g>
</svg>
