<?xml version="1.0" encoding="utf-8"?>
<!-- Generator: Adobe Illustrator 25.3.1, SVG Export Plug-In . SVG Version: 6.00 Build 0)  -->
<svg version="1.1" id="Layer_1" xmlns="http://www.w3.org/2000/svg" xmlns:xlink="http://www.w3.org/1999/xlink" x="0px" y="0px"
	 viewBox="0 0 64 64" style="enable-background:new 0 0 64 64;" xml:space="preserve">
<style type="text/css">
	.st0{fill:#29A7ED;}
</style>
<path class="st0" d="M51.57,29.47c-0.32-0.21-2.87-1.73-3.88-2.19l-1.25-3.03c0.37-1,1.09-3.81,1.21-4.3
	c0.1-0.45-0.04-0.93-0.36-1.25l-1.98-1.96c-0.33-0.33-0.8-0.47-1.25-0.36c-0.37,0.08-3.23,0.81-4.3,1.21l-3.03-1.25
	c-0.44-0.97-1.92-3.45-2.19-3.88c-0.24-0.4-0.68-0.64-1.14-0.64h-2.78c-0.46,0-0.9,0.24-1.14,0.63c-0.21,0.32-1.73,2.87-2.19,3.88
	l-3.03,1.25c-1-0.37-3.81-1.09-4.3-1.21c-0.45-0.1-0.93,0.04-1.25,0.36l-1.96,1.98c-0.33,0.33-0.47,0.8-0.36,1.25
	c0.08,0.37,0.81,3.23,1.21,4.3l-1.25,3.03c-0.97,0.44-3.45,1.92-3.88,2.19c-0.4,0.24-0.64,0.68-0.64,1.14v2.78
	c0,0.46,0.24,0.9,0.63,1.14c0.32,0.21,2.87,1.73,3.88,2.19l1.25,3.03c-0.37,1-1.09,3.81-1.21,4.3c-0.1,0.45,0.04,0.93,0.36,1.25
	l1.96,1.96c0.33,0.33,0.8,0.47,1.25,0.36c0.37-0.08,3.23-0.81,4.3-1.21l3.03,1.25c0.44,0.97,1.92,3.45,2.19,3.88
	c0.24,0.4,0.68,0.65,1.16,0.65h2.78c0.46,0,0.9-0.24,1.14-0.63c0.21-0.32,1.73-2.87,2.19-3.88l3.03-1.25c1,0.37,3.81,1.09,4.3,1.21
	c0.45,0.1,0.93-0.04,1.25-0.36l1.96-1.96c0.33-0.33,0.47-0.8,0.36-1.25c-0.08-0.37-0.81-3.23-1.21-4.3l1.25-3.03
	c0.97-0.44,3.45-1.92,3.88-2.19c0.4-0.24,0.65-0.68,0.65-1.16v-2.78C52.21,30.14,51.97,29.71,51.57,29.47z M32,40.8
	c-4.86,0-8.8-3.95-8.8-8.81s3.95-8.8,8.81-8.8s8.8,3.95,8.8,8.81C40.8,36.86,36.86,40.79,32,40.8z"/>
</svg>
