<?xml version="1.0" encoding="utf-8"?>
<!-- Generator: Adobe Illustrator 25.3.1, SVG Export Plug-In . SVG Version: 6.00 Build 0)  -->
<svg version="1.1" id="Layer_1" xmlns="http://www.w3.org/2000/svg" xmlns:xlink="http://www.w3.org/1999/xlink" x="0px" y="0px"
	 viewBox="0 0 64 64" style="enable-background:new 0 0 64 64;" xml:space="preserve">
<style type="text/css">
	.st0{fill:#FFFFFF;}
</style>
<path class="st0" d="M57.94,34.12h-8.55v4.56h-2.03V21.9c0-0.32-0.13-0.44-0.44-0.44h-2.6c-0.32,0-0.44,0.13-0.44,0.44v3.04h-3.42
	V21.9c0-0.32-0.13-0.44-0.44-0.44h-2.6c-0.32,0-0.44,0.13-0.44,0.44v3.04h-3.42V21.9c0-0.13,0-0.19-0.06-0.25
	c-0.06-0.06-0.13-0.13-0.25-0.13c-0.13,0-0.19-0.06-0.25-0.06c-0.06,0-0.19,0-0.32,0s-0.25,0-0.25,0v-3.61
	c0.89-0.19,1.71-0.32,2.41-0.32c0.32,0,0.82,0.06,1.52,0.19c0.63,0.13,1.14,0.19,1.46,0.19c0.51,0,1.01-0.06,1.65-0.19
	c0.63-0.13,0.95-0.32,0.95-0.57v-5.64c0-0.32-0.13-0.44-0.44-0.44c-0.13,0-0.44,0.06-1.01,0.19c-0.57,0.13-0.95,0.19-1.27,0.19
	s-0.76-0.06-1.46-0.19c-0.7-0.13-1.2-0.19-1.58-0.19c-0.7,0-1.46,0.06-2.22,0.25v-0.44c0.57-0.25,0.89-0.7,0.89-1.33
	c0-0.44-0.13-0.76-0.44-1.08c-0.32-0.32-0.63-0.44-1.01-0.44s-0.76,0.13-1.01,0.44c-0.32,0.32-0.44,0.63-0.44,1.08
	c0,0.63,0.32,1.08,0.89,1.33v10.51c0,0-0.13,0-0.25,0c-0.13,0-0.25,0-0.32,0s-0.13,0-0.25,0.06c-0.13,0-0.19,0.06-0.25,0.13
	s-0.06,0.13-0.06,0.25v3.04h-3.42V21.9c0-0.32-0.13-0.44-0.44-0.44h-2.6c-0.32,0-0.44,0.13-0.44,0.44v3.04h-3.42V21.9
	c0-0.32-0.13-0.44-0.44-0.44h-2.6c-0.32,0-0.44,0.13-0.44,0.44v16.85h-1.77v-4.56H6v4.56h3.48v17.23h17.23v-8.61
	c0-1.46,0.51-2.66,1.52-3.67c1.01-1.01,2.22-1.52,3.67-1.52c1.46,0,2.66,0.51,3.67,1.52c1.01,1.01,1.52,2.22,1.52,3.67v8.61h17.23
	V38.75H58v-4.62H57.94z M26.71,30.13v3.99h-3.42v-3.99H26.71z M37.04,34.12v-3.99h3.42v3.99H37.04z"/>
</svg>
