<?xml version="1.0" encoding="utf-8"?>
<!-- Generator: Adobe Illustrator 25.3.1, SVG Export Plug-In . SVG Version: 6.00 Build 0)  -->
<svg version="1.1" id="Layer_1" xmlns="http://www.w3.org/2000/svg" xmlns:xlink="http://www.w3.org/1999/xlink" x="0px" y="0px"
	 viewBox="0 0 64 64" style="enable-background:new 0 0 64 64;" xml:space="preserve">
<style type="text/css">
	.st0{fill:#F87060;}
	.st1{fill:#FFFFFF;}
</style>
<g>
	<circle class="st0" cx="32" cy="32" r="25"/>
</g>
<g>
	<path class="st1" d="M29.54,38.15c-4.75,0-8.61-3.85-8.61-8.61s3.85-8.61,8.61-8.61s8.61,3.85,8.61,8.61
		C38.14,34.29,34.29,38.14,29.54,38.15z M29.54,22.57c-3.85,0-6.97,3.12-6.97,6.97s3.12,6.97,6.97,6.97s6.97-3.12,6.97-6.97
		C36.5,25.69,33.38,22.58,29.54,22.57z"/>
	<path class="st1" d="M42.24,43.07c-0.22,0-0.43-0.08-0.58-0.24l-7.21-7.21c-0.32-0.32-0.32-0.84,0-1.16c0,0,0,0,0,0
		c0.32-0.32,0.84-0.32,1.16,0l7.21,7.21c0.32,0.32,0.32,0.84,0,1.16c0,0,0,0,0,0C42.67,42.98,42.46,43.07,42.24,43.07z"/>
</g>
</svg>
