<?xml version="1.0" encoding="utf-8"?>
<!-- Generator: Adobe Illustrator 25.3.1, SVG Export Plug-In . SVG Version: 6.00 Build 0)  -->
<svg version="1.1" id="Layer_1" xmlns="http://www.w3.org/2000/svg" xmlns:xlink="http://www.w3.org/1999/xlink" x="0px" y="0px"
	 viewBox="0 0 64 64" style="enable-background:new 0 0 64 64;" xml:space="preserve">
<style type="text/css">
	.st0{fill:#F87060;}
</style>
<g>
	<path class="st0" d="M54.8,31.2C51.1,23,42.5,14.8,32,14.8S12.9,23,9.2,31.2c-0.2,0.5-0.2,1.1,0,1.6C12.9,41,21.5,49.2,32,49.2
		S51.1,41,54.8,32.8C55.1,32.3,55.1,31.7,54.8,31.2z M32,41.6c-5.3,0-9.6-4.3-9.6-9.6s4.3-9.6,9.6-9.6s9.6,4.3,9.6,9.6
		C41.6,37.3,37.3,41.6,32,41.6z"/>
	<circle class="st0" cx="32" cy="32" r="5.7"/>
</g>
</svg>
